<svg xmlns="http://www.w3.org/2000/svg" viewBox="16 16 98 95">
<path d="M57.6394 85.3848C45.0066 83.8535 36.1062 74.7617 36.1062 62.9902C36.1062 58.2051 37.8289 53.0371 40.7 49.5918C39.4558 46.4336 39.6472 39.7344 41.0828 36.959C44.9109 36.4805 50.0789 38.4902 53.1414 41.2656C56.7781 40.1172 60.6062 39.543 65.2957 39.543C69.9851 39.543 73.8132 40.1172 77.2585 41.1699C80.2253 38.4902 85.489 36.4805 89.3171 36.959C90.657 39.543 90.8484 46.2422 89.6042 49.4961C92.6667 53.1328 94.2937 58.0137 94.2937 62.9902C94.2937 74.7617 85.3933 83.6621 72.5691 85.2891C75.823 87.3945 78.0242 91.9883 78.0242 97.252L78.0242 107.205C78.0242 110.076 80.4167 111.703 83.2878 110.555C100.61 103.951 114.2 86.6289 114.2 65.1914C114.2 38.1074 92.1882 16 65.1042 16C38.0203 16 16.2 38.1074 16.2 65.1914C16.2 86.4375 29.6941 104.047 47.8777 110.65C50.4617 111.607 52.95 109.885 52.95 107.301L52.95 99.6445C51.6101 100.219 49.8875 100.602 48.3562 100.602C42.0398 100.602 38.3074 97.1563 35.6277 90.7441C34.575 88.1602 33.4265 86.6289 31.2253 86.3418C30.0769 86.2461 29.6941 85.7676 29.6941 85.1934C29.6941 84.0449 31.6082 83.1836 33.5222 83.1836C36.2976 83.1836 38.6902 84.9063 41.1785 88.4473C43.0925 91.2227 45.1023 92.4668 47.4949 92.4668C49.8875 92.4668 51.4187 91.6055 53.6199 89.4043C55.2468 87.7773 56.491 86.3418 57.6394 85.3848Z" fill="currentColor"/>
</svg>
